#!OML:ASF F:\VICON\USERDATA\INSTALL\rory3\rory3.ASF
:FULLY-SPECIFIED
:DEGREES
65
root 0.0668101 18.3918 7.83501 4.30872 1.30158 5.4876
lowerback 14.7973 -3.46772 -7.99157
upperback -0.438676 -6.1028 -1.25971
thorax -8.08559 -2.6402 4.4138
lowerneck -5.63908 3.09657 0.335417
upperneck -4.57782 4.0359 -3.09073
head -0.401287 2.01318 -0.944735
rclavicle 3.97569e-015 1.27222e-014
rhumerus -64.1749 3.40248 -80.6661
rradius 82.7385
rwrist -7.35504
rhand -35.4519 31.5122
rfingers 7.12502
rthumb -8.58092 1.70656
lclavicle 3.97569e-015 1.27222e-014
lhumerus -17.8553 -18.8846 88.4798
lradius 119.852
lwrist 32.6682
lhand -32.9933 6.51838
lfingers 7.12502
lthumb -6.20771 36.4074
rfemur -43.7673 0.715432 14.8972
rtibia 69.0388
rfoot 0.910192 -2.62825
rtoes -3.29127
lfemur 27.5945 -2.69997 -30.26
ltibia -3.18055e-014
lfoot 30.5775 4.66967
ltoes -18.6886
66
root 0.0821711 18.4632 8.37882 4.56969 0.731634 5.27935
lowerback 14.5079 -3.38959 -7.70815
upperback -0.756922 -5.93632 -1.14607
thorax -8.30593 -2.55165 4.33901
lowerneck -5.3443 3.13144 0.582983
upperneck -4.18088 4.07797 -3.18416
head -0.319416 2.02967 -1.01471
rclavicle 7.8023e-014 4.8901e-014
rhumerus -65.1771 3.15042 -80.5054
rradius 83.3045
rwrist -7.59824
rhand -37.264 30.5869
rfingers 7.12502
rthumb -10.3293 0.860617
lclavicle 7.8023e-014 4.8901e-014
lhumerus -18.7182 -20.037 88.8811
lradius 120.389
lwrist 31.7638
lhand -33.3121 7.441
lfingers 7.12502
lthumb -6.5155 37.3208
rfemur -43.5605 2.04659 14.896
rtibia 63.9157
rfoot 0.751555 -3.00256
rtoes -5.09351
lfemur 28.3817 -2.66756 -30.0982
ltibia -6.99722e-014
lfoot 33.4077 6.33031
ltoes -14.4659
67
root 0.0982484 18.5427 8.91102 5.0757 0.124433 4.84059
lowerback 14.1712 -3.35534 -7.31601
upperback -1.04615 -5.78657 -0.842522
thorax -8.45327 -2.47726 4.40486
lowerneck -5.5541 3.28349 0.472607
upperneck -3.66189 4.30122 -3.09176
head -0.126812 2.13649 -0.954539
rclavicle 4.11981e-014 1.90833e-014
rhumerus -65.9456 3.20552 -80.3066
rradius 84.2343
rwrist -7.78443
rhand -37.7616 29.9221
rfingers 7.12502
rthumb -10.8093 0.220207
lclavicle 4.11981e-014 1.90833e-014
lhumerus -19.2711 -20.9145 89.2871
lradius 120.836
lwrist 30.7906
lhand -33.2366 8.97568
lfingers 7.12502
lthumb -6.44264 38.8577
rfemur -43.4735 3.54248 15.0441
rtibia 58.585
rfoot 1.11531 -3.40413
rtoes -6.89576
lfemur 28.9014 -2.61106 -29.7244
ltibia 3.81667e-014
lfoot 35.8561 7.54181
ltoes -10.8453
68
root 0.117007 18.6042 9.4524 5.43758 -0.0288445 4.98034
lowerback 12.9836 -3.44379 -7.47971
upperback -0.61662 -5.78459 -0.694722
thorax -7.27889 -2.54034 4.52859
lowerneck -6.20722 3.35825 0.617853
upperneck -3.66629 4.39019 -3.31853
head -0.0107319 2.17276 -1.03631
rclavicle -8.22969e-014 -7.7526e-015
rhumerus -65.4771 3.00666 -80.0607
rradius 84.8638
rwrist -7.87499
rhand -37.5764 29.7028
rfingers 7.12502
rthumb -10.6306 -0.00830332
lclavicle -8.22969e-014 -7.7526e-015
lhumerus -18.7966 -21.7279 89.2622
lradius 121.239
lwrist 30.046
lhand -33.1673 9.93787
lfingers 7.12502
lthumb -6.3757 39.8219
rfemur -42.9596 4.5112 14.4515
rtibia 53.2145
rfoot 1.53309 -3.76534
rtoes -7.47293
lfemur 29.6735 -2.97166 -30.0452
ltibia -2.54444e-014
lfoot 37.2857 8.24813
ltoes -10.2784
69
root 0.138014 18.6538 9.99063 5.66885 -0.0390516 5.09485
lowerback 12.7271 -3.59588 -7.39559
upperback -0.577506 -5.93914 -0.571237
thorax -7.06637 -2.62916 4.61334
lowerneck -6.78953 3.43595 0.62226
upperneck -3.46287 4.49803 -3.39788
head 0.151845 2.21868 -1.04758
rclavicle -6.53008e-014 -2.20651e-014
rhumerus -65.2894 2.94242 -79.8554
rradius 85.162
rwrist -7.66682
rhand -37.9853 29.0835
rfingers 7.12502
rthumb -11.0251 -0.606908
lclavicle -6.53008e-014 -2.20651e-014
lhumerus -19.0605 -22.4366 89.452
lradius 121.697
lwrist 29.319
lhand -33.5985 10.5628
lfingers 7.12502
lthumb -6.79198 40.4339
rfemur -42.0951 5.46141 13.8136
rtibia 47.8286
rfoot 1.82106 -4.16515
rtoes -7.07315
lfemur 30.6419 -3.41811 -30.4159
ltibia -1.01778e-013
lfoot 37.6819 7.84317
ltoes -9.77747
70
root 0.153561 18.6894 10.5271 5.84988 -0.126881 5.21334
lowerback 12.8408 -3.74451 -7.35858
upperback -0.737477 -6.13847 -0.411467
thorax -7.26408 -2.71053 4.81309
lowerneck -7.259 3.5973 0.345567
upperneck -3.11245 4.7435 -3.26951
head 0.331373 2.33708 -0.944145
rclavicle -8.69683e-016 -6.55989e-015
rhumerus -65.3314 3.23018 -79.7493
rradius 85.5167
rwrist -7.53083
rhand -38.1782 29.6963
rfingers 7.12502
rthumb -11.2111 0.0158395
lclavicle -8.69683e-016 -6.55989e-015
lhumerus -19.6524 -22.9519 89.8597
lradius 122.052
lwrist 28.6809
lhand -33.7406 10.7564
lfingers 7.12502
lthumb -6.92917 40.623
rfemur -41.1543 6.86602 13.0308
rtibia 42.5731
rfoot 2.64192 -5.41206
rtoes -6.12807
lfemur 31.6956 -3.77 -30.8203
ltibia -3.18055e-015
lfoot 37.5231 7.06446
ltoes -8.18002
71
root 0.168845 18.7178 11.0781 5.73765 -0.139056 5.60584
lowerback 12.9605 -3.75191 -7.46121
upperback -0.852378 -6.18805 -0.49205
thorax -7.44922 -2.71927 4.80979
lowerneck -7.19 3.59045 0.337912
upperneck -2.89576 4.74118 -3.11448
head 0.382513 2.33592 -0.894085
rclavicle 7.00467e-014 1.13307e-014
rhumerus -65.6784 3.01107 -79.6911
rradius 85.9208
rwrist -7.42348
rhand -37.9772 31.6131
rfingers 7.12502
rthumb -11.0173 1.92224
lclavicle 7.00467e-014 1.13307e-014
lhumerus -20.6514 -23.7849 90.4399
lradius 122.255
lwrist 27.8515
lhand -33.3748 10.0296
lfingers 7.12502
lthumb -6.57603 39.9075
rfemur -39.8393 8.30388 11.9189
rtibia 37.6036
rfoot 2.86719 -7.34018
rtoes -6.21185
lfemur 32.9919 -4.14791 -31.549
ltibia 1.08139e-013
lfoot 37.1966 6.60015
ltoes -9.171
72
root 0.193607 18.7436 11.625 5.585 0.0441133 6.2417
lowerback 13.096 -3.79704 -7.64588
upperback -0.854303 -6.30534 -0.698861
thorax -7.51857 -2.76856 4.72379
lowerneck -7.12686 3.55249 0.427068
upperneck -3.0216 4.68089 -2.9909
head 0.330666 2.3079 -0.874501
rclavicle 5.2181e-016 3.27995e-015
rhumerus -65.8394 2.6571 -79.6718
rradius 86.2772
rwrist -7.33195
rhand -37.9236 32.6536
rfingers 7.12502
rthumb -10.9656 2.95999
lclavicle 5.2181e-016 3.27995e-015
lhumerus -21.5743 -24.5549 90.8851
lradius 122.294
lwrist 26.5992
lhand -32.7886 9.04265
lfingers 7.12502
lthumb -6.01009 38.9374
rfemur -38.464 9.38607 10.5878
rtibia 33.1247
rfoot 2.0692 -9.64424
rtoes -8.26997
lfemur 32.0958 -4.65428 -32.7006
ltibia 4.17991
lfoot 34.6836 6.12206
ltoes -12.4679
73
root 0.212757 18.7474 12.1598 5.47344 0.280353 6.67028
lowerback 13.2599 -3.94301 -7.62253
upperback -0.719556 -6.51117 -0.822568
thorax -7.45585 -2.87789 4.6213
lowerneck -7.51339 3.55847 0.234846
upperneck -3.27152 4.69804 -2.74886
head 0.304664 2.31938 -0.763367
rclavicle -6.45553e-014 -1.73937e-014
rhumerus -65.5531 2.54252 -79.7872
rradius 86.823
rwrist -7.23937
rhand -38.2862 32.3252
rfingers 7.12502
rthumb -11.3153 2.65041
lclavicle -6.45553e-014 -1.73937e-014
lhumerus -21.9491 -25.0974 90.9525
lradius 122.195
lwrist 25.3939
lhand -32.5235 7.98204
lfingers 7.12502
lthumb -5.75421 37.8839
rfemur -37.3006 10.5162 9.55976
rtibia 29.4002
rfoot 1.17079 -11.7238
rtoes -7.14562
lfemur 29.9242 -5.21428 -33.6439
ltibia 11.2424
lfoot 30.3661 5.44218
ltoes -17.4525
